<?xml version="1.0" encoding="utf-8" standalone="no"?>
<!DOCTYPE svg PUBLIC "-//W3C//DTD SVG 1.1//EN"
  "http://www.w3.org/Graphics/SVG/1.1/DTD/svg11.dtd">
<svg xmlns:xlink="http://www.w3.org/1999/xlink" width="432pt" height="288pt" viewBox="0 0 432 288" xmlns="http://www.w3.org/2000/svg" version="1.1">
 <metadata>
  <rdf:RDF xmlns:dc="http://purl.org/dc/elements/1.1/" xmlns:cc="http://creativecommons.org/ns#" xmlns:rdf="http://www.w3.org/1999/02/22-rdf-syntax-ns#">
   <cc:Work>
    <dc:type rdf:resource="http://purl.org/dc/dcmitype/StillImage"/>
    <dc:date>2022-10-02T17:53:07.002679</dc:date>
    <dc:format>image/svg+xml</dc:format>
    <dc:creator>
     <cc:Agent>
      <dc:title>Matplotlib v3.5.1, https://matplotlib.org/</dc:title>
     </cc:Agent>
    </dc:creator>
   </cc:Work>
  </rdf:RDF>
 </metadata>
 <defs>
  <style type="text/css">*{stroke-linejoin: round; stroke-linecap: butt}</style>
 </defs>
 <g id="figure_1">
  <g id="patch_1">
   <path d="M 0 288 
L 432 288 
L 432 0 
L 0 0 
L 0 288 
z
" style="fill: none"/>
  </g>
  <g id="axes_1">
   <g id="patch_2">
    <path d="M 54 252 
L 388.8 252 
L 388.8 34.56 
L 54 34.56 
z
" style="fill: #ffffff"/>
   </g>
   <g id="patch_3">
    <path d="M 69.218182 252 
L 71.243846 252 
L 71.243846 252 
L 69.218182 252 
z
" clip-path="url(#pb69c4fa3f0)" style="fill: #bf00bf"/>
   </g>
   <g id="patch_4">
    <path d="M 72.241562 252 
L 74.267226 252 
L 74.267226 252 
L 72.241562 252 
z
" clip-path="url(#pb69c4fa3f0)" style="fill: #bf00bf"/>
   </g>
   <g id="patch_5">
    <path d="M 75.264941 252 
L 77.290606 252 
L 77.290606 252 
L 75.264941 252 
z
" clip-path="url(#pb69c4fa3f0)" style="fill: #bf00bf"/>
   </g>
   <g id="patch_6">
    <path d="M 78.288321 252 
L 80.313985 252 
L 80.313985 252 
L 78.288321 252 
z
" clip-path="url(#pb69c4fa3f0)" style="fill: #bf00bf"/>
   </g>
   <g id="patch_7">
    <path d="M 81.311701 252 
L 83.337365 252 
L 83.337365 252 
L 81.311701 252 
z
" clip-path="url(#pb69c4fa3f0)" style="fill: #bf00bf"/>
   </g>
   <g id="patch_8">
    <path d="M 84.33508 252 
L 86.360745 252 
L 86.360745 252 
L 84.33508 252 
z
" clip-path="url(#pb69c4fa3f0)" style="fill: #bf00bf"/>
   </g>
   <g id="patch_9">
    <path d="M 87.35846 252 
L 89.384125 252 
L 89.384125 252 
L 87.35846 252 
z
" clip-path="url(#pb69c4fa3f0)" style="fill: #bf00bf"/>
   </g>
   <g id="patch_10">
    <path d="M 90.38184 252 
L 92.407504 252 
L 92.407504 252 
L 90.38184 252 
z
" clip-path="url(#pb69c4fa3f0)" style="fill: #bf00bf"/>
   </g>
   <g id="patch_11">
    <path d="M 93.40522 252 
L 95.430884 252 
L 95.430884 252 
L 93.40522 252 
z
" clip-path="url(#pb69c4fa3f0)" style="fill: #bf00bf"/>
   </g>
   <g id="patch_12">
    <path d="M 96.428599 252 
L 98.454264 252 
L 98.454264 252 
L 96.428599 252 
z
" clip-path="url(#pb69c4fa3f0)" style="fill: #bf00bf"/>
   </g>
   <g id="patch_13">
    <path d="M 99.451979 252 
L 101.477643 252 
L 101.477643 252 
L 99.451979 252 
z
" clip-path="url(#pb69c4fa3f0)" style="fill: #bf00bf"/>
   </g>
   <g id="patch_14">
    <path d="M 102.475359 252 
L 104.501023 252 
L 104.501023 252 
L 102.475359 252 
z
" clip-path="url(#pb69c4fa3f0)" style="fill: #bf00bf"/>
   </g>
   <g id="patch_15">
    <path d="M 105.498738 252 
L 107.524403 252 
L 107.524403 252 
L 105.498738 252 
z
" clip-path="url(#pb69c4fa3f0)" style="fill: #bf00bf"/>
   </g>
   <g id="patch_16">
    <path d="M 108.522118 252 
L 110.547783 252 
L 110.547783 252 
L 108.522118 252 
z
" clip-path="url(#pb69c4fa3f0)" style="fill: #bf00bf"/>
   </g>
   <g id="patch_17">
    <path d="M 111.545498 252 
L 113.571162 252 
L 113.571162 252 
L 111.545498 252 
z
" clip-path="url(#pb69c4fa3f0)" style="fill: #bf00bf"/>
   </g>
   <g id="patch_18">
    <path d="M 114.568878 252 
L 116.594542 252 
L 116.594542 252 
L 114.568878 252 
z
" clip-path="url(#pb69c4fa3f0)" style="fill: #bf00bf"/>
   </g>
   <g id="patch_19">
    <path d="M 117.592257 252 
L 119.617922 252 
L 119.617922 252 
L 117.592257 252 
z
" clip-path="url(#pb69c4fa3f0)" style="fill: #bf00bf"/>
   </g>
   <g id="patch_20">
    <path d="M 120.615637 252 
L 122.641301 252 
L 122.641301 251.999999 
L 120.615637 251.999999 
z
" clip-path="url(#pb69c4fa3f0)" style="fill: #bf00bf"/>
   </g>
   <g id="patch_21">
    <path d="M 123.639017 252 
L 125.664681 252 
L 125.664681 251.999996 
L 123.639017 251.999996 
z
" clip-path="url(#pb69c4fa3f0)" style="fill: #bf00bf"/>
   </g>
   <g id="patch_22">
    <path d="M 126.662396 252 
L 128.688061 252 
L 128.688061 251.999986 
L 126.662396 251.999986 
z
" clip-path="url(#pb69c4fa3f0)" style="fill: #bf00bf"/>
   </g>
   <g id="patch_23">
    <path d="M 129.685776 252 
L 131.711441 252 
L 131.711441 251.999957 
L 129.685776 251.999957 
z
" clip-path="url(#pb69c4fa3f0)" style="fill: #bf00bf"/>
   </g>
   <g id="patch_24">
    <path d="M 132.709156 252 
L 134.73482 252 
L 134.73482 251.99987 
L 132.709156 251.99987 
z
" clip-path="url(#pb69c4fa3f0)" style="fill: #bf00bf"/>
   </g>
   <g id="patch_25">
    <path d="M 135.732536 252 
L 137.7582 252 
L 137.7582 251.999631 
L 135.732536 251.999631 
z
" clip-path="url(#pb69c4fa3f0)" style="fill: #bf00bf"/>
   </g>
   <g id="patch_26">
    <path d="M 138.755915 252 
L 140.78158 252 
L 140.78158 251.999 
L 138.755915 251.999 
z
" clip-path="url(#pb69c4fa3f0)" style="fill: #bf00bf"/>
   </g>
   <g id="patch_27">
    <path d="M 141.779295 252 
L 143.804959 252 
L 143.804959 251.997416 
L 141.779295 251.997416 
z
" clip-path="url(#pb69c4fa3f0)" style="fill: #bf00bf"/>
   </g>
   <g id="patch_28">
    <path d="M 144.802675 252 
L 146.828339 252 
L 146.828339 251.993623 
L 144.802675 251.993623 
z
" clip-path="url(#pb69c4fa3f0)" style="fill: #bf00bf"/>
   </g>
   <g id="patch_29">
    <path d="M 147.826055 252 
L 149.851719 252 
L 149.851719 251.984944 
L 147.826055 251.984944 
z
" clip-path="url(#pb69c4fa3f0)" style="fill: #bf00bf"/>
   </g>
   <g id="patch_30">
    <path d="M 150.849434 252 
L 152.875099 252 
L 152.875099 251.965945 
L 150.849434 251.965945 
z
" clip-path="url(#pb69c4fa3f0)" style="fill: #bf00bf"/>
   </g>
   <g id="patch_31">
    <path d="M 153.872814 252 
L 155.898478 252 
L 155.898478 251.926122 
L 153.872814 251.926122 
z
" clip-path="url(#pb69c4fa3f0)" style="fill: #bf00bf"/>
   </g>
   <g id="patch_32">
    <path d="M 156.896194 252 
L 158.921858 252 
L 158.921858 251.846118 
L 156.896194 251.846118 
z
" clip-path="url(#pb69c4fa3f0)" style="fill: #bf00bf"/>
   </g>
   <g id="patch_33">
    <path d="M 159.919573 252 
L 161.945238 252 
L 161.945238 251.691946 
L 159.919573 251.691946 
z
" clip-path="url(#pb69c4fa3f0)" style="fill: #bf00bf"/>
   </g>
   <g id="patch_34">
    <path d="M 162.942953 252 
L 164.968618 252 
L 164.968618 251.406767 
L 162.942953 251.406767 
z
" clip-path="url(#pb69c4fa3f0)" style="fill: #bf00bf"/>
   </g>
   <g id="patch_35">
    <path d="M 165.966333 252 
L 167.991997 252 
L 167.991997 250.900117 
L 165.966333 250.900117 
z
" clip-path="url(#pb69c4fa3f0)" style="fill: #bf00bf"/>
   </g>
   <g id="patch_36">
    <path d="M 168.989713 252 
L 171.015377 252 
L 171.015377 250.035189 
L 168.989713 250.035189 
z
" clip-path="url(#pb69c4fa3f0)" style="fill: #bf00bf"/>
   </g>
   <g id="patch_37">
    <path d="M 172.013092 252 
L 174.038757 252 
L 174.038757 248.615841 
L 172.013092 248.615841 
z
" clip-path="url(#pb69c4fa3f0)" style="fill: #bf00bf"/>
   </g>
   <g id="patch_38">
    <path d="M 175.036472 252 
L 177.062136 252 
L 177.062136 246.376405 
L 175.036472 246.376405 
z
" clip-path="url(#pb69c4fa3f0)" style="fill: #bf00bf"/>
   </g>
   <g id="patch_39">
    <path d="M 178.059852 252 
L 180.085516 252 
L 180.085516 242.978817 
L 178.059852 242.978817 
z
" clip-path="url(#pb69c4fa3f0)" style="fill: #bf00bf"/>
   </g>
   <g id="patch_40">
    <path d="M 181.083231 252 
L 183.108896 252 
L 183.108896 238.022485 
L 181.083231 238.022485 
z
" clip-path="url(#pb69c4fa3f0)" style="fill: #bf00bf"/>
   </g>
   <g id="patch_41">
    <path d="M 184.106611 252 
L 186.132276 252 
L 186.132276 231.072221 
L 184.106611 231.072221 
z
" clip-path="url(#pb69c4fa3f0)" style="fill: #bf00bf"/>
   </g>
   <g id="patch_42">
    <path d="M 187.129991 252 
L 189.155655 252 
L 189.155655 221.70765 
L 187.129991 221.70765 
z
" clip-path="url(#pb69c4fa3f0)" style="fill: #bf00bf"/>
   </g>
   <g id="patch_43">
    <path d="M 190.153371 252 
L 192.179035 252 
L 192.179035 209.593669 
L 190.153371 209.593669 
z
" clip-path="url(#pb69c4fa3f0)" style="fill: #bf00bf"/>
   </g>
   <g id="patch_44">
    <path d="M 193.17675 252 
L 195.202415 252 
L 195.202415 194.565887 
L 193.17675 194.565887 
z
" clip-path="url(#pb69c4fa3f0)" style="fill: #bf00bf"/>
   </g>
   <g id="patch_45">
    <path d="M 196.20013 252 
L 198.225794 252 
L 198.225794 176.718672 
L 196.20013 176.718672 
z
" clip-path="url(#pb69c4fa3f0)" style="fill: #bf00bf"/>
   </g>
   <g id="patch_46">
    <path d="M 199.22351 252 
L 201.249174 252 
L 201.249174 156.478036 
L 199.22351 156.478036 
z
" clip-path="url(#pb69c4fa3f0)" style="fill: #bf00bf"/>
   </g>
   <g id="patch_47">
    <path d="M 202.246889 252 
L 204.272554 252 
L 204.272554 134.639275 
L 202.246889 134.639275 
z
" clip-path="url(#pb69c4fa3f0)" style="fill: #bf00bf"/>
   </g>
   <g id="patch_48">
    <path d="M 205.270269 252 
L 207.295934 252 
L 207.295934 112.351647 
L 205.270269 112.351647 
z
" clip-path="url(#pb69c4fa3f0)" style="fill: #bf00bf"/>
   </g>
   <g id="patch_49">
    <path d="M 208.293649 252 
L 210.319313 252 
L 210.319313 91.040094 
L 208.293649 91.040094 
z
" clip-path="url(#pb69c4fa3f0)" style="fill: #bf00bf"/>
   </g>
   <g id="patch_50">
    <path d="M 211.317029 252 
L 213.342693 252 
L 213.342693 72.266252 
L 211.317029 72.266252 
z
" clip-path="url(#pb69c4fa3f0)" style="fill: #bf00bf"/>
   </g>
   <g id="patch_51">
    <path d="M 214.340408 252 
L 216.366073 252 
L 216.366073 57.545116 
L 214.340408 57.545116 
z
" clip-path="url(#pb69c4fa3f0)" style="fill: #bf00bf"/>
   </g>
   <g id="patch_52">
    <path d="M 217.363788 252 
L 219.389452 252 
L 219.389452 48.146116 
L 217.363788 48.146116 
z
" clip-path="url(#pb69c4fa3f0)" style="fill: #bf00bf"/>
   </g>
   <g id="patch_53">
    <path d="M 220.387168 252 
L 222.412832 252 
L 222.412832 44.914286 
L 220.387168 44.914286 
z
" clip-path="url(#pb69c4fa3f0)" style="fill: #bf00bf"/>
   </g>
   <g id="patch_54">
    <path d="M 223.410548 252 
L 225.436212 252 
L 225.436212 48.146116 
L 223.410548 48.146116 
z
" clip-path="url(#pb69c4fa3f0)" style="fill: #bf00bf"/>
   </g>
   <g id="patch_55">
    <path d="M 226.433927 252 
L 228.459592 252 
L 228.459592 57.545116 
L 226.433927 57.545116 
z
" clip-path="url(#pb69c4fa3f0)" style="fill: #bf00bf"/>
   </g>
   <g id="patch_56">
    <path d="M 229.457307 252 
L 231.482971 252 
L 231.482971 72.266252 
L 229.457307 72.266252 
z
" clip-path="url(#pb69c4fa3f0)" style="fill: #bf00bf"/>
   </g>
   <g id="patch_57">
    <path d="M 232.480687 252 
L 234.506351 252 
L 234.506351 91.040094 
L 232.480687 91.040094 
z
" clip-path="url(#pb69c4fa3f0)" style="fill: #bf00bf"/>
   </g>
   <g id="patch_58">
    <path d="M 235.504066 252 
L 237.529731 252 
L 237.529731 112.351647 
L 235.504066 112.351647 
z
" clip-path="url(#pb69c4fa3f0)" style="fill: #bf00bf"/>
   </g>
   <g id="patch_59">
    <path d="M 238.527446 252 
L 240.553111 252 
L 240.553111 134.639275 
L 238.527446 134.639275 
z
" clip-path="url(#pb69c4fa3f0)" style="fill: #bf00bf"/>
   </g>
   <g id="patch_60">
    <path d="M 241.550826 252 
L 243.57649 252 
L 243.57649 156.478036 
L 241.550826 156.478036 
z
" clip-path="url(#pb69c4fa3f0)" style="fill: #bf00bf"/>
   </g>
   <g id="patch_61">
    <path d="M 244.574206 252 
L 246.59987 252 
L 246.59987 176.718672 
L 244.574206 176.718672 
z
" clip-path="url(#pb69c4fa3f0)" style="fill: #bf00bf"/>
   </g>
   <g id="patch_62">
    <path d="M 247.597585 252 
L 249.62325 252 
L 249.62325 194.565887 
L 247.597585 194.565887 
z
" clip-path="url(#pb69c4fa3f0)" style="fill: #bf00bf"/>
   </g>
   <g id="patch_63">
    <path d="M 250.620965 252 
L 252.646629 252 
L 252.646629 209.593669 
L 250.620965 209.593669 
z
" clip-path="url(#pb69c4fa3f0)" style="fill: #bf00bf"/>
   </g>
   <g id="patch_64">
    <path d="M 253.644345 252 
L 255.670009 252 
L 255.670009 221.70765 
L 253.644345 221.70765 
z
" clip-path="url(#pb69c4fa3f0)" style="fill: #bf00bf"/>
   </g>
   <g id="patch_65">
    <path d="M 256.667724 252 
L 258.693389 252 
L 258.693389 231.072221 
L 256.667724 231.072221 
z
" clip-path="url(#pb69c4fa3f0)" style="fill: #bf00bf"/>
   </g>
   <g id="patch_66">
    <path d="M 259.691104 252 
L 261.716769 252 
L 261.716769 238.022485 
L 259.691104 238.022485 
z
" clip-path="url(#pb69c4fa3f0)" style="fill: #bf00bf"/>
   </g>
   <g id="patch_67">
    <path d="M 262.714484 252 
L 264.740148 252 
L 264.740148 242.978817 
L 262.714484 242.978817 
z
" clip-path="url(#pb69c4fa3f0)" style="fill: #bf00bf"/>
   </g>
   <g id="patch_68">
    <path d="M 265.737864 252 
L 267.763528 252 
L 267.763528 246.376405 
L 265.737864 246.376405 
z
" clip-path="url(#pb69c4fa3f0)" style="fill: #bf00bf"/>
   </g>
   <g id="patch_69">
    <path d="M 268.761243 252 
L 270.786908 252 
L 270.786908 248.615841 
L 268.761243 248.615841 
z
" clip-path="url(#pb69c4fa3f0)" style="fill: #bf00bf"/>
   </g>
   <g id="patch_70">
    <path d="M 271.784623 252 
L 273.810287 252 
L 273.810287 250.035189 
L 271.784623 250.035189 
z
" clip-path="url(#pb69c4fa3f0)" style="fill: #bf00bf"/>
   </g>
   <g id="patch_71">
    <path d="M 274.808003 252 
L 276.833667 252 
L 276.833667 250.900117 
L 274.808003 250.900117 
z
" clip-path="url(#pb69c4fa3f0)" style="fill: #bf00bf"/>
   </g>
   <g id="patch_72">
    <path d="M 277.831382 252 
L 279.857047 252 
L 279.857047 251.406767 
L 277.831382 251.406767 
z
" clip-path="url(#pb69c4fa3f0)" style="fill: #bf00bf"/>
   </g>
   <g id="patch_73">
    <path d="M 280.854762 252 
L 282.880427 252 
L 282.880427 251.691946 
L 280.854762 251.691946 
z
" clip-path="url(#pb69c4fa3f0)" style="fill: #bf00bf"/>
   </g>
   <g id="patch_74">
    <path d="M 283.878142 252 
L 285.903806 252 
L 285.903806 251.846118 
L 283.878142 251.846118 
z
" clip-path="url(#pb69c4fa3f0)" style="fill: #bf00bf"/>
   </g>
   <g id="patch_75">
    <path d="M 286.901522 252 
L 288.927186 252 
L 288.927186 251.926122 
L 286.901522 251.926122 
z
" clip-path="url(#pb69c4fa3f0)" style="fill: #bf00bf"/>
   </g>
   <g id="patch_76">
    <path d="M 289.924901 252 
L 291.950566 252 
L 291.950566 251.965945 
L 289.924901 251.965945 
z
" clip-path="url(#pb69c4fa3f0)" style="fill: #bf00bf"/>
   </g>
   <g id="patch_77">
    <path d="M 292.948281 252 
L 294.973945 252 
L 294.973945 251.984944 
L 292.948281 251.984944 
z
" clip-path="url(#pb69c4fa3f0)" style="fill: #bf00bf"/>
   </g>
   <g id="patch_78">
    <path d="M 295.971661 252 
L 297.997325 252 
L 297.997325 251.993623 
L 295.971661 251.993623 
z
" clip-path="url(#pb69c4fa3f0)" style="fill: #bf00bf"/>
   </g>
   <g id="patch_79">
    <path d="M 298.995041 252 
L 301.020705 252 
L 301.020705 251.997416 
L 298.995041 251.997416 
z
" clip-path="url(#pb69c4fa3f0)" style="fill: #bf00bf"/>
   </g>
   <g id="patch_80">
    <path d="M 302.01842 252 
L 304.044085 252 
L 304.044085 251.999 
L 302.01842 251.999 
z
" clip-path="url(#pb69c4fa3f0)" style="fill: #bf00bf"/>
   </g>
   <g id="patch_81">
    <path d="M 305.0418 252 
L 307.067464 252 
L 307.067464 251.999631 
L 305.0418 251.999631 
z
" clip-path="url(#pb69c4fa3f0)" style="fill: #bf00bf"/>
   </g>
   <g id="patch_82">
    <path d="M 308.06518 252 
L 310.090844 252 
L 310.090844 251.99987 
L 308.06518 251.99987 
z
" clip-path="url(#pb69c4fa3f0)" style="fill: #bf00bf"/>
   </g>
   <g id="patch_83">
    <path d="M 311.088559 252 
L 313.114224 252 
L 313.114224 251.999957 
L 311.088559 251.999957 
z
" clip-path="url(#pb69c4fa3f0)" style="fill: #bf00bf"/>
   </g>
   <g id="patch_84">
    <path d="M 314.111939 252 
L 316.137604 252 
L 316.137604 251.999986 
L 314.111939 251.999986 
z
" clip-path="url(#pb69c4fa3f0)" style="fill: #bf00bf"/>
   </g>
   <g id="patch_85">
    <path d="M 317.135319 252 
L 319.160983 252 
L 319.160983 251.999996 
L 317.135319 251.999996 
z
" clip-path="url(#pb69c4fa3f0)" style="fill: #bf00bf"/>
   </g>
   <g id="patch_86">
    <path d="M 320.158699 252 
L 322.184363 252 
L 322.184363 251.999999 
L 320.158699 251.999999 
z
" clip-path="url(#pb69c4fa3f0)" style="fill: #bf00bf"/>
   </g>
   <g id="patch_87">
    <path d="M 323.182078 252 
L 325.207743 252 
L 325.207743 252 
L 323.182078 252 
z
" clip-path="url(#pb69c4fa3f0)" style="fill: #bf00bf"/>
   </g>
   <g id="patch_88">
    <path d="M 326.205458 252 
L 328.231122 252 
L 328.231122 252 
L 326.205458 252 
z
" clip-path="url(#pb69c4fa3f0)" style="fill: #bf00bf"/>
   </g>
   <g id="patch_89">
    <path d="M 329.228838 252 
L 331.254502 252 
L 331.254502 252 
L 329.228838 252 
z
" clip-path="url(#pb69c4fa3f0)" style="fill: #bf00bf"/>
   </g>
   <g id="patch_90">
    <path d="M 332.252217 252 
L 334.277882 252 
L 334.277882 252 
L 332.252217 252 
z
" clip-path="url(#pb69c4fa3f0)" style="fill: #bf00bf"/>
   </g>
   <g id="patch_91">
    <path d="M 335.275597 252 
L 337.301262 252 
L 337.301262 252 
L 335.275597 252 
z
" clip-path="url(#pb69c4fa3f0)" style="fill: #bf00bf"/>
   </g>
   <g id="patch_92">
    <path d="M 338.298977 252 
L 340.324641 252 
L 340.324641 252 
L 338.298977 252 
z
" clip-path="url(#pb69c4fa3f0)" style="fill: #bf00bf"/>
   </g>
   <g id="patch_93">
    <path d="M 341.322357 252 
L 343.348021 252 
L 343.348021 252 
L 341.322357 252 
z
" clip-path="url(#pb69c4fa3f0)" style="fill: #bf00bf"/>
   </g>
   <g id="patch_94">
    <path d="M 344.345736 252 
L 346.371401 252 
L 346.371401 252 
L 344.345736 252 
z
" clip-path="url(#pb69c4fa3f0)" style="fill: #bf00bf"/>
   </g>
   <g id="patch_95">
    <path d="M 347.369116 252 
L 349.39478 252 
L 349.39478 252 
L 347.369116 252 
z
" clip-path="url(#pb69c4fa3f0)" style="fill: #bf00bf"/>
   </g>
   <g id="patch_96">
    <path d="M 350.392496 252 
L 352.41816 252 
L 352.41816 252 
L 350.392496 252 
z
" clip-path="url(#pb69c4fa3f0)" style="fill: #bf00bf"/>
   </g>
   <g id="patch_97">
    <path d="M 353.415875 252 
L 355.44154 252 
L 355.44154 252 
L 353.415875 252 
z
" clip-path="url(#pb69c4fa3f0)" style="fill: #bf00bf"/>
   </g>
   <g id="patch_98">
    <path d="M 356.439255 252 
L 358.46492 252 
L 358.46492 252 
L 356.439255 252 
z
" clip-path="url(#pb69c4fa3f0)" style="fill: #bf00bf"/>
   </g>
   <g id="patch_99">
    <path d="M 359.462635 252 
L 361.488299 252 
L 361.488299 252 
L 359.462635 252 
z
" clip-path="url(#pb69c4fa3f0)" style="fill: #bf00bf"/>
   </g>
   <g id="patch_100">
    <path d="M 362.486015 252 
L 364.511679 252 
L 364.511679 252 
L 362.486015 252 
z
" clip-path="url(#pb69c4fa3f0)" style="fill: #bf00bf"/>
   </g>
   <g id="patch_101">
    <path d="M 365.509394 252 
L 367.535059 252 
L 367.535059 252 
L 365.509394 252 
z
" clip-path="url(#pb69c4fa3f0)" style="fill: #bf00bf"/>
   </g>
   <g id="patch_102">
    <path d="M 368.532774 252 
L 370.558438 252 
L 370.558438 252 
L 368.532774 252 
z
" clip-path="url(#pb69c4fa3f0)" style="fill: #bf00bf"/>
   </g>
   <g id="patch_103">
    <path d="M 371.556154 252 
L 373.581818 252 
L 373.581818 252 
L 371.556154 252 
z
" clip-path="url(#pb69c4fa3f0)" style="fill: #bf00bf"/>
   </g>
   <g id="matplotlib.axis_1">
    <g id="xtick_1">
     <g id="line2d_1">
      <defs>
       <path id="m6c9e27024c" d="M 0 0 
L 0 3.5 
" style="stroke: #ffffff; stroke-width: 0.8"/>
      </defs>
      <g>
       <use xlink:href="#m6c9e27024c" x="70.231014" y="252" style="fill: #ffffff; stroke: #ffffff; stroke-width: 0.8"/>
      </g>
     </g>
     <g id="text_1">
      <!-- 0 -->
      <g style="fill: #ffffff" transform="translate(67.049764 266.598437)scale(0.1 -0.1)">
       <defs>
        <path id="DejaVuSans-30" d="M 2034 4250 
Q 1547 4250 1301 3770 
Q 1056 3291 1056 2328 
Q 1056 1369 1301 889 
Q 1547 409 2034 409 
Q 2525 409 2770 889 
Q 3016 1369 3016 2328 
Q 3016 3291 2770 3770 
Q 2525 4250 2034 4250 
z
M 2034 4750 
Q 2819 4750 3233 4129 
Q 3647 3509 3647 2328 
Q 3647 1150 3233 529 
Q 2819 -91 2034 -91 
Q 1250 -91 836 529 
Q 422 1150 422 2328 
Q 422 3509 836 4129 
Q 1250 4750 2034 4750 
z
" transform="scale(0.015625)"/>
       </defs>
       <use xlink:href="#DejaVuSans-30"/>
      </g>
     </g>
    </g>
    <g id="xtick_2">
     <g id="line2d_2">
      <g>
       <use xlink:href="#m6c9e27024c" x="130.698608" y="252" style="fill: #ffffff; stroke: #ffffff; stroke-width: 0.8"/>
      </g>
     </g>
     <g id="text_2">
      <!-- 20 -->
      <g style="fill: #ffffff" transform="translate(124.336108 266.598437)scale(0.1 -0.1)">
       <defs>
        <path id="DejaVuSans-32" d="M 1228 531 
L 3431 531 
L 3431 0 
L 469 0 
L 469 531 
Q 828 903 1448 1529 
Q 2069 2156 2228 2338 
Q 2531 2678 2651 2914 
Q 2772 3150 2772 3378 
Q 2772 3750 2511 3984 
Q 2250 4219 1831 4219 
Q 1534 4219 1204 4116 
Q 875 4013 500 3803 
L 500 4441 
Q 881 4594 1212 4672 
Q 1544 4750 1819 4750 
Q 2544 4750 2975 4387 
Q 3406 4025 3406 3419 
Q 3406 3131 3298 2873 
Q 3191 2616 2906 2266 
Q 2828 2175 2409 1742 
Q 1991 1309 1228 531 
z
" transform="scale(0.015625)"/>
       </defs>
       <use xlink:href="#DejaVuSans-32"/>
       <use xlink:href="#DejaVuSans-30" x="63.623047"/>
      </g>
     </g>
    </g>
    <g id="xtick_3">
     <g id="line2d_3">
      <g>
       <use xlink:href="#m6c9e27024c" x="191.166203" y="252" style="fill: #ffffff; stroke: #ffffff; stroke-width: 0.8"/>
      </g>
     </g>
     <g id="text_3">
      <!-- 40 -->
      <g style="fill: #ffffff" transform="translate(184.803703 266.598437)scale(0.1 -0.1)">
       <defs>
        <path id="DejaVuSans-34" d="M 2419 4116 
L 825 1625 
L 2419 1625 
L 2419 4116 
z
M 2253 4666 
L 3047 4666 
L 3047 1625 
L 3713 1625 
L 3713 1100 
L 3047 1100 
L 3047 0 
L 2419 0 
L 2419 1100 
L 313 1100 
L 313 1709 
L 2253 4666 
z
" transform="scale(0.015625)"/>
       </defs>
       <use xlink:href="#DejaVuSans-34"/>
       <use xlink:href="#DejaVuSans-30" x="63.623047"/>
      </g>
     </g>
    </g>
    <g id="xtick_4">
     <g id="line2d_4">
      <g>
       <use xlink:href="#m6c9e27024c" x="251.633797" y="252" style="fill: #ffffff; stroke: #ffffff; stroke-width: 0.8"/>
      </g>
     </g>
     <g id="text_4">
      <!-- 60 -->
      <g style="fill: #ffffff" transform="translate(245.271297 266.598437)scale(0.1 -0.1)">
       <defs>
        <path id="DejaVuSans-36" d="M 2113 2584 
Q 1688 2584 1439 2293 
Q 1191 2003 1191 1497 
Q 1191 994 1439 701 
Q 1688 409 2113 409 
Q 2538 409 2786 701 
Q 3034 994 3034 1497 
Q 3034 2003 2786 2293 
Q 2538 2584 2113 2584 
z
M 3366 4563 
L 3366 3988 
Q 3128 4100 2886 4159 
Q 2644 4219 2406 4219 
Q 1781 4219 1451 3797 
Q 1122 3375 1075 2522 
Q 1259 2794 1537 2939 
Q 1816 3084 2150 3084 
Q 2853 3084 3261 2657 
Q 3669 2231 3669 1497 
Q 3669 778 3244 343 
Q 2819 -91 2113 -91 
Q 1303 -91 875 529 
Q 447 1150 447 2328 
Q 447 3434 972 4092 
Q 1497 4750 2381 4750 
Q 2619 4750 2861 4703 
Q 3103 4656 3366 4563 
z
" transform="scale(0.015625)"/>
       </defs>
       <use xlink:href="#DejaVuSans-36"/>
       <use xlink:href="#DejaVuSans-30" x="63.623047"/>
      </g>
     </g>
    </g>
    <g id="xtick_5">
     <g id="line2d_5">
      <g>
       <use xlink:href="#m6c9e27024c" x="312.101392" y="252" style="fill: #ffffff; stroke: #ffffff; stroke-width: 0.8"/>
      </g>
     </g>
     <g id="text_5">
      <!-- 80 -->
      <g style="fill: #ffffff" transform="translate(305.738892 266.598437)scale(0.1 -0.1)">
       <defs>
        <path id="DejaVuSans-38" d="M 2034 2216 
Q 1584 2216 1326 1975 
Q 1069 1734 1069 1313 
Q 1069 891 1326 650 
Q 1584 409 2034 409 
Q 2484 409 2743 651 
Q 3003 894 3003 1313 
Q 3003 1734 2745 1975 
Q 2488 2216 2034 2216 
z
M 1403 2484 
Q 997 2584 770 2862 
Q 544 3141 544 3541 
Q 544 4100 942 4425 
Q 1341 4750 2034 4750 
Q 2731 4750 3128 4425 
Q 3525 4100 3525 3541 
Q 3525 3141 3298 2862 
Q 3072 2584 2669 2484 
Q 3125 2378 3379 2068 
Q 3634 1759 3634 1313 
Q 3634 634 3220 271 
Q 2806 -91 2034 -91 
Q 1263 -91 848 271 
Q 434 634 434 1313 
Q 434 1759 690 2068 
Q 947 2378 1403 2484 
z
M 1172 3481 
Q 1172 3119 1398 2916 
Q 1625 2713 2034 2713 
Q 2441 2713 2670 2916 
Q 2900 3119 2900 3481 
Q 2900 3844 2670 4047 
Q 2441 4250 2034 4250 
Q 1625 4250 1398 4047 
Q 1172 3844 1172 3481 
z
" transform="scale(0.015625)"/>
       </defs>
       <use xlink:href="#DejaVuSans-38"/>
       <use xlink:href="#DejaVuSans-30" x="63.623047"/>
      </g>
     </g>
    </g>
    <g id="xtick_6">
     <g id="line2d_6">
      <g>
       <use xlink:href="#m6c9e27024c" x="372.568986" y="252" style="fill: #ffffff; stroke: #ffffff; stroke-width: 0.8"/>
      </g>
     </g>
     <g id="text_6">
      <!-- 100 -->
      <g style="fill: #ffffff" transform="translate(363.025236 266.598437)scale(0.1 -0.1)">
       <defs>
        <path id="DejaVuSans-31" d="M 794 531 
L 1825 531 
L 1825 4091 
L 703 3866 
L 703 4441 
L 1819 4666 
L 2450 4666 
L 2450 531 
L 3481 531 
L 3481 0 
L 794 0 
L 794 531 
z
" transform="scale(0.015625)"/>
       </defs>
       <use xlink:href="#DejaVuSans-31"/>
       <use xlink:href="#DejaVuSans-30" x="63.623047"/>
       <use xlink:href="#DejaVuSans-30" x="127.246094"/>
      </g>
     </g>
    </g>
    <g id="text_7">
     <!-- $q_{\mathrm{A}}$ -->
     <g style="fill: #ffffff" transform="translate(211.05 286.31875)scale(0.18 -0.18)">
      <defs>
       <path id="DejaVuSans-Oblique-71" d="M 2669 525 
Q 2438 222 2123 65 
Q 1809 -91 1428 -91 
Q 897 -91 595 267 
Q 294 625 294 1253 
Q 294 1759 480 2231 
Q 666 2703 1013 3078 
Q 1238 3322 1530 3453 
Q 1822 3584 2144 3584 
Q 2531 3584 2781 3431 
Q 3031 3278 3144 2969 
L 3244 3494 
L 3822 3494 
L 2888 -1319 
L 2309 -1319 
L 2669 525 
z
M 891 1338 
Q 891 875 1084 633 
Q 1278 391 1644 391 
Q 2188 391 2572 911 
Q 2956 1431 2956 2175 
Q 2956 2625 2757 2864 
Q 2559 3103 2188 3103 
Q 1916 3103 1684 2976 
Q 1453 2850 1281 2606 
Q 1100 2350 995 2006 
Q 891 1663 891 1338 
z
" transform="scale(0.015625)"/>
       <path id="DejaVuSans-41" d="M 2188 4044 
L 1331 1722 
L 3047 1722 
L 2188 4044 
z
M 1831 4666 
L 2547 4666 
L 4325 0 
L 3669 0 
L 3244 1197 
L 1141 1197 
L 716 0 
L 50 0 
L 1831 4666 
z
" transform="scale(0.015625)"/>
      </defs>
      <use xlink:href="#DejaVuSans-Oblique-71"/>
      <use xlink:href="#DejaVuSans-41" transform="translate(63.476562 -16.40625)scale(0.7)"/>
     </g>
    </g>
   </g>
   <g id="matplotlib.axis_2">
    <g id="ytick_1">
     <g id="line2d_7">
      <defs>
       <path id="mc2108fe49c" d="M 0 0 
L -3.5 0 
" style="stroke: #ffffff; stroke-width: 0.8"/>
      </defs>
      <g>
       <use xlink:href="#mc2108fe49c" x="54" y="252" style="fill: #ffffff; stroke: #ffffff; stroke-width: 0.8"/>
      </g>
     </g>
     <g id="text_8">
      <!-- 0.00 -->
      <g style="fill: #ffffff" transform="translate(24.734375 255.799219)scale(0.1 -0.1)">
       <defs>
        <path id="DejaVuSans-2e" d="M 684 794 
L 1344 794 
L 1344 0 
L 684 0 
L 684 794 
z
" transform="scale(0.015625)"/>
       </defs>
       <use xlink:href="#DejaVuSans-30"/>
       <use xlink:href="#DejaVuSans-2e" x="63.623047"/>
       <use xlink:href="#DejaVuSans-30" x="95.410156"/>
       <use xlink:href="#DejaVuSans-30" x="159.033203"/>
      </g>
     </g>
    </g>
    <g id="ytick_2">
     <g id="line2d_8">
      <g>
       <use xlink:href="#mc2108fe49c" x="54" y="224.913714" style="fill: #ffffff; stroke: #ffffff; stroke-width: 0.8"/>
      </g>
     </g>
     <g id="text_9">
      <!-- 0.25 -->
      <g style="fill: #ffffff" transform="translate(24.734375 228.712933)scale(0.1 -0.1)">
       <defs>
        <path id="DejaVuSans-35" d="M 691 4666 
L 3169 4666 
L 3169 4134 
L 1269 4134 
L 1269 2991 
Q 1406 3038 1543 3061 
Q 1681 3084 1819 3084 
Q 2600 3084 3056 2656 
Q 3513 2228 3513 1497 
Q 3513 744 3044 326 
Q 2575 -91 1722 -91 
Q 1428 -91 1123 -41 
Q 819 9 494 109 
L 494 744 
Q 775 591 1075 516 
Q 1375 441 1709 441 
Q 2250 441 2565 725 
Q 2881 1009 2881 1497 
Q 2881 1984 2565 2268 
Q 2250 2553 1709 2553 
Q 1456 2553 1204 2497 
Q 953 2441 691 2322 
L 691 4666 
z
" transform="scale(0.015625)"/>
       </defs>
       <use xlink:href="#DejaVuSans-30"/>
       <use xlink:href="#DejaVuSans-2e" x="63.623047"/>
       <use xlink:href="#DejaVuSans-32" x="95.410156"/>
       <use xlink:href="#DejaVuSans-35" x="159.033203"/>
      </g>
     </g>
    </g>
    <g id="ytick_3">
     <g id="line2d_9">
      <g>
       <use xlink:href="#mc2108fe49c" x="54" y="197.827428" style="fill: #ffffff; stroke: #ffffff; stroke-width: 0.8"/>
      </g>
     </g>
     <g id="text_10">
      <!-- 0.50 -->
      <g style="fill: #ffffff" transform="translate(24.734375 201.626647)scale(0.1 -0.1)">
       <use xlink:href="#DejaVuSans-30"/>
       <use xlink:href="#DejaVuSans-2e" x="63.623047"/>
       <use xlink:href="#DejaVuSans-35" x="95.410156"/>
       <use xlink:href="#DejaVuSans-30" x="159.033203"/>
      </g>
     </g>
    </g>
    <g id="ytick_4">
     <g id="line2d_10">
      <g>
       <use xlink:href="#mc2108fe49c" x="54" y="170.741142" style="fill: #ffffff; stroke: #ffffff; stroke-width: 0.8"/>
      </g>
     </g>
     <g id="text_11">
      <!-- 0.75 -->
      <g style="fill: #ffffff" transform="translate(24.734375 174.540361)scale(0.1 -0.1)">
       <defs>
        <path id="DejaVuSans-37" d="M 525 4666 
L 3525 4666 
L 3525 4397 
L 1831 0 
L 1172 0 
L 2766 4134 
L 525 4134 
L 525 4666 
z
" transform="scale(0.015625)"/>
       </defs>
       <use xlink:href="#DejaVuSans-30"/>
       <use xlink:href="#DejaVuSans-2e" x="63.623047"/>
       <use xlink:href="#DejaVuSans-37" x="95.410156"/>
       <use xlink:href="#DejaVuSans-35" x="159.033203"/>
      </g>
     </g>
    </g>
    <g id="ytick_5">
     <g id="line2d_11">
      <g>
       <use xlink:href="#mc2108fe49c" x="54" y="143.654857" style="fill: #ffffff; stroke: #ffffff; stroke-width: 0.8"/>
      </g>
     </g>
     <g id="text_12">
      <!-- 1.00 -->
      <g style="fill: #ffffff" transform="translate(24.734375 147.454075)scale(0.1 -0.1)">
       <use xlink:href="#DejaVuSans-31"/>
       <use xlink:href="#DejaVuSans-2e" x="63.623047"/>
       <use xlink:href="#DejaVuSans-30" x="95.410156"/>
       <use xlink:href="#DejaVuSans-30" x="159.033203"/>
      </g>
     </g>
    </g>
    <g id="ytick_6">
     <g id="line2d_12">
      <g>
       <use xlink:href="#mc2108fe49c" x="54" y="116.568571" style="fill: #ffffff; stroke: #ffffff; stroke-width: 0.8"/>
      </g>
     </g>
     <g id="text_13">
      <!-- 1.25 -->
      <g style="fill: #ffffff" transform="translate(24.734375 120.36779)scale(0.1 -0.1)">
       <use xlink:href="#DejaVuSans-31"/>
       <use xlink:href="#DejaVuSans-2e" x="63.623047"/>
       <use xlink:href="#DejaVuSans-32" x="95.410156"/>
       <use xlink:href="#DejaVuSans-35" x="159.033203"/>
      </g>
     </g>
    </g>
    <g id="ytick_7">
     <g id="line2d_13">
      <g>
       <use xlink:href="#mc2108fe49c" x="54" y="89.482285" style="fill: #ffffff; stroke: #ffffff; stroke-width: 0.8"/>
      </g>
     </g>
     <g id="text_14">
      <!-- 1.50 -->
      <g style="fill: #ffffff" transform="translate(24.734375 93.281504)scale(0.1 -0.1)">
       <use xlink:href="#DejaVuSans-31"/>
       <use xlink:href="#DejaVuSans-2e" x="63.623047"/>
       <use xlink:href="#DejaVuSans-35" x="95.410156"/>
       <use xlink:href="#DejaVuSans-30" x="159.033203"/>
      </g>
     </g>
    </g>
    <g id="ytick_8">
     <g id="line2d_14">
      <g>
       <use xlink:href="#mc2108fe49c" x="54" y="62.395999" style="fill: #ffffff; stroke: #ffffff; stroke-width: 0.8"/>
      </g>
     </g>
     <g id="text_15">
      <!-- 1.75 -->
      <g style="fill: #ffffff" transform="translate(24.734375 66.195218)scale(0.1 -0.1)">
       <use xlink:href="#DejaVuSans-31"/>
       <use xlink:href="#DejaVuSans-2e" x="63.623047"/>
       <use xlink:href="#DejaVuSans-37" x="95.410156"/>
       <use xlink:href="#DejaVuSans-35" x="159.033203"/>
      </g>
     </g>
    </g>
    <g id="ytick_9">
     <g id="line2d_15">
      <g>
       <use xlink:href="#mc2108fe49c" x="54" y="35.309713" style="fill: #ffffff; stroke: #ffffff; stroke-width: 0.8"/>
      </g>
     </g>
     <g id="text_16">
      <!-- 2.00 -->
      <g style="fill: #ffffff" transform="translate(24.734375 39.108932)scale(0.1 -0.1)">
       <use xlink:href="#DejaVuSans-32"/>
       <use xlink:href="#DejaVuSans-2e" x="63.623047"/>
       <use xlink:href="#DejaVuSans-30" x="95.410156"/>
       <use xlink:href="#DejaVuSans-30" x="159.033203"/>
      </g>
     </g>
    </g>
    <g id="text_17">
     <!-- $\Omega_{\mathrm{total}}$ -->
     <g style="fill: #ffffff" transform="translate(16.990938 164.97)rotate(-90)scale(0.18 -0.18)">
      <defs>
       <path id="DejaVuSans-3a9" d="M 4647 556 
L 4647 0 
L 2772 0 
L 2772 556 
Q 3325 859 3634 1378 
Q 3944 1897 3944 2528 
Q 3944 3278 3531 3731 
Q 3119 4184 2444 4184 
Q 1769 4184 1355 3729 
Q 941 3275 941 2528 
Q 941 1897 1250 1378 
Q 1563 859 2119 556 
L 2119 0 
L 244 0 
L 244 556 
L 1241 556 
Q 747 991 519 1456 
Q 294 1922 294 2497 
Q 294 3491 894 4106 
Q 1491 4722 2444 4722 
Q 3391 4722 3994 4106 
Q 4594 3494 4594 2528 
Q 4594 1922 4372 1459 
Q 4150 997 3647 556 
L 4647 556 
z
" transform="scale(0.015625)"/>
       <path id="DejaVuSans-74" d="M 1172 4494 
L 1172 3500 
L 2356 3500 
L 2356 3053 
L 1172 3053 
L 1172 1153 
Q 1172 725 1289 603 
Q 1406 481 1766 481 
L 2356 481 
L 2356 0 
L 1766 0 
Q 1100 0 847 248 
Q 594 497 594 1153 
L 594 3053 
L 172 3053 
L 172 3500 
L 594 3500 
L 594 4494 
L 1172 4494 
z
" transform="scale(0.015625)"/>
       <path id="DejaVuSans-6f" d="M 1959 3097 
Q 1497 3097 1228 2736 
Q 959 2375 959 1747 
Q 959 1119 1226 758 
Q 1494 397 1959 397 
Q 2419 397 2687 759 
Q 2956 1122 2956 1747 
Q 2956 2369 2687 2733 
Q 2419 3097 1959 3097 
z
M 1959 3584 
Q 2709 3584 3137 3096 
Q 3566 2609 3566 1747 
Q 3566 888 3137 398 
Q 2709 -91 1959 -91 
Q 1206 -91 779 398 
Q 353 888 353 1747 
Q 353 2609 779 3096 
Q 1206 3584 1959 3584 
z
" transform="scale(0.015625)"/>
       <path id="DejaVuSans-61" d="M 2194 1759 
Q 1497 1759 1228 1600 
Q 959 1441 959 1056 
Q 959 750 1161 570 
Q 1363 391 1709 391 
Q 2188 391 2477 730 
Q 2766 1069 2766 1631 
L 2766 1759 
L 2194 1759 
z
M 3341 1997 
L 3341 0 
L 2766 0 
L 2766 531 
Q 2569 213 2275 61 
Q 1981 -91 1556 -91 
Q 1019 -91 701 211 
Q 384 513 384 1019 
Q 384 1609 779 1909 
Q 1175 2209 1959 2209 
L 2766 2209 
L 2766 2266 
Q 2766 2663 2505 2880 
Q 2244 3097 1772 3097 
Q 1472 3097 1187 3025 
Q 903 2953 641 2809 
L 641 3341 
Q 956 3463 1253 3523 
Q 1550 3584 1831 3584 
Q 2591 3584 2966 3190 
Q 3341 2797 3341 1997 
z
" transform="scale(0.015625)"/>
       <path id="DejaVuSans-6c" d="M 603 4863 
L 1178 4863 
L 1178 0 
L 603 0 
L 603 4863 
z
" transform="scale(0.015625)"/>
      </defs>
      <use xlink:href="#DejaVuSans-3a9" transform="translate(0 0.21875)"/>
      <use xlink:href="#DejaVuSans-74" transform="translate(77.373047 -16.1875)scale(0.7)"/>
      <use xlink:href="#DejaVuSans-6f" transform="translate(104.819336 -16.1875)scale(0.7)"/>
      <use xlink:href="#DejaVuSans-74" transform="translate(147.646484 -16.1875)scale(0.7)"/>
      <use xlink:href="#DejaVuSans-61" transform="translate(175.092773 -16.1875)scale(0.7)"/>
      <use xlink:href="#DejaVuSans-6c" transform="translate(217.988281 -16.1875)scale(0.7)"/>
     </g>
    </g>
    <g id="text_18">
     <!-- 1e105 -->
     <g style="fill: #ffffff" transform="translate(54 31.56)scale(0.1 -0.1)">
      <defs>
       <path id="DejaVuSans-65" d="M 3597 1894 
L 3597 1613 
L 953 1613 
Q 991 1019 1311 708 
Q 1631 397 2203 397 
Q 2534 397 2845 478 
Q 3156 559 3463 722 
L 3463 178 
Q 3153 47 2828 -22 
Q 2503 -91 2169 -91 
Q 1331 -91 842 396 
Q 353 884 353 1716 
Q 353 2575 817 3079 
Q 1281 3584 2069 3584 
Q 2775 3584 3186 3129 
Q 3597 2675 3597 1894 
z
M 3022 2063 
Q 3016 2534 2758 2815 
Q 2500 3097 2075 3097 
Q 1594 3097 1305 2825 
Q 1016 2553 972 2059 
L 3022 2063 
z
" transform="scale(0.015625)"/>
      </defs>
      <use xlink:href="#DejaVuSans-31"/>
      <use xlink:href="#DejaVuSans-65" x="63.623047"/>
      <use xlink:href="#DejaVuSans-31" x="125.146484"/>
      <use xlink:href="#DejaVuSans-30" x="188.769531"/>
      <use xlink:href="#DejaVuSans-35" x="252.392578"/>
     </g>
    </g>
   </g>
   <g id="line2d_16">
    <path d="M 70.231014 252 
L 73.254394 252 
L 76.277773 252 
L 79.301153 252 
L 82.324533 252 
L 85.347913 252 
L 88.371292 252 
L 91.394672 252 
L 94.418052 252 
L 97.441431 252 
L 100.464811 252 
L 103.488191 252 
L 106.511571 252 
L 109.53495 252 
L 112.55833 252 
L 115.58171 252 
L 118.60509 252 
L 121.628469 251.999999 
L 124.651849 251.999996 
L 127.675229 251.999986 
L 130.698608 251.999957 
L 133.721988 251.99987 
L 136.745368 251.999631 
L 139.768748 251.999 
L 142.792127 251.997416 
L 145.815507 251.993623 
L 148.838887 251.984944 
L 151.862266 251.965945 
L 154.885646 251.926122 
L 157.909026 251.846118 
L 160.932406 251.691946 
L 163.955785 251.406767 
L 166.979165 250.900117 
L 170.002545 250.035189 
L 173.025924 248.615841 
L 176.049304 246.376405 
L 179.072684 242.978817 
L 182.096064 238.022485 
L 185.119443 231.072221 
L 188.142823 221.70765 
L 191.166203 209.593669 
L 194.189583 194.565887 
L 197.212962 176.718672 
L 200.236342 156.478036 
L 203.259722 134.639275 
L 206.283101 112.351647 
L 209.306481 91.040094 
L 212.329861 72.266252 
L 215.353241 57.545116 
L 218.37662 48.146116 
L 221.4 44.914286 
L 224.42338 48.146116 
L 227.446759 57.545116 
L 230.470139 72.266252 
L 233.493519 91.040094 
L 236.516899 112.351647 
L 239.540278 134.639275 
L 242.563658 156.478036 
L 245.587038 176.718672 
L 248.610417 194.565887 
L 251.633797 209.593669 
L 254.657177 221.70765 
L 257.680557 231.072221 
L 260.703936 238.022485 
L 263.727316 242.978817 
L 266.750696 246.376405 
L 269.774076 248.615841 
L 272.797455 250.035189 
L 275.820835 250.900117 
L 278.844215 251.406767 
L 281.867594 251.691946 
L 284.890974 251.846118 
L 287.914354 251.926122 
L 290.937734 251.965945 
L 293.961113 251.984944 
L 296.984493 251.993623 
L 300.007873 251.997416 
L 303.031252 251.999 
L 306.054632 251.999631 
L 309.078012 251.99987 
L 312.101392 251.999957 
L 315.124771 251.999986 
L 318.148151 251.999996 
L 321.171531 251.999999 
L 324.19491 252 
L 327.21829 252 
L 330.24167 252 
L 333.26505 252 
L 336.288429 252 
L 339.311809 252 
L 342.335189 252 
L 345.358569 252 
L 348.381948 252 
L 351.405328 252 
L 354.428708 252 
L 357.452087 252 
L 360.475467 252 
L 363.498847 252 
L 366.522227 252 
L 369.545606 252 
L 372.568986 252 
" clip-path="url(#pb69c4fa3f0)" style="fill: none; stroke: #bf00bf; stroke-width: 1.5; stroke-linecap: square"/>
   </g>
   <g id="patch_104">
    <path d="M 54 252 
L 54 34.56 
" style="fill: none; stroke: #000000; stroke-width: 0.8; stroke-linejoin: miter; stroke-linecap: square"/>
   </g>
   <g id="patch_105">
    <path d="M 388.8 252 
L 388.8 34.56 
" style="fill: none; stroke: #000000; stroke-width: 0.8; stroke-linejoin: miter; stroke-linecap: square"/>
   </g>
   <g id="patch_106">
    <path d="M 54 252 
L 388.8 252 
" style="fill: none; stroke: #000000; stroke-width: 0.8; stroke-linejoin: miter; stroke-linecap: square"/>
   </g>
   <g id="patch_107">
    <path d="M 54 34.56 
L 388.8 34.56 
" style="fill: none; stroke: #000000; stroke-width: 0.8; stroke-linejoin: miter; stroke-linecap: square"/>
   </g>
  </g>
 </g>
 <defs>
  <clipPath id="pb69c4fa3f0">
   <rect x="54" y="34.56" width="334.8" height="217.44"/>
  </clipPath>
 </defs>
</svg>
